<?xml version="1.0" encoding="utf-8"?>
<!-- Generator: Adobe Illustrator 16.0.0, SVG Export Plug-In . SVG Version: 6.00 Build 0)  -->
<!DOCTYPE svg PUBLIC "-//W3C//DTD SVG 1.1//EN" "http://www.w3.org/Graphics/SVG/1.1/DTD/svg11.dtd">
<svg version="1.1" id="Layer_1" xmlns="http://www.w3.org/2000/svg" xmlns:xlink="http://www.w3.org/1999/xlink" x="0px" y="0px"
	 width="138px" height="232px" viewBox="0 0 138 232" enable-background="new 0 0 138 232" xml:space="preserve">
<path fill="#B7B7B7" stroke="#B7B7B7" stroke-miterlimit="10" d="M60.547,212.578l-23.255,0.127c0,0-6.671-0.507-8.578-7.721V21.095
	c0,0,0.952-7.72,11.247-7.72c10.293,0,20.756,0,20.756,0L60.547,212.578z"/>
<path fill="#FFFFFF" stroke="#FFFFFF" stroke-miterlimit="10" d="M60.857,11.087l40.078-0.128c0,0,11.495,0.513,14.78,7.814v186.118
	c0,0-1.639,7.813-19.381,7.813c-17.738,0-35.77,0-35.77,0L60.857,11.087z"/>
<path fill="none" stroke="#474747" stroke-width="5" stroke-miterlimit="10" d="M115.715,201.505c0,6.159-3.777,11.151-8.436,11.151
	H34.872c-4.658,0-8.435-4.992-8.435-11.151V22.151c0-6.159,3.777-11.151,8.435-11.151h72.407c4.658,0,8.436,4.993,8.436,11.151
	V201.505z"/>
<g>
	<circle fill="#E0E0E0" stroke="#474747" stroke-width="5" stroke-miterlimit="10" cx="70.531" cy="24" r="6"/>
	<g>
		<path fill="#E0E0E0" stroke="#474747" stroke-width="5" stroke-miterlimit="10" d="M96.641,119.661
			c0,2.673-2.283,4.839-5.102,4.839H47.744c-2.818,0-5.104-2.166-5.104-4.839V41.839c0-2.672,2.285-4.839,5.104-4.839h43.795
			c2.818,0,5.102,2.167,5.102,4.839V119.661z"/>
		<g>
			<line fill="none" stroke="#474747" stroke-width="3" stroke-miterlimit="10" x1="57.363" y1="95.554" x2="81.92" y2="92.055"/>
			<g>
				<line fill="none" stroke="#474747" stroke-width="3" stroke-miterlimit="10" x1="57.383" y1="79.396" x2="65.842" y2="70.937"/>
				<line fill="none" stroke="#474747" stroke-width="3" stroke-miterlimit="10" x1="65.842" y1="79.396" x2="57.383" y2="70.937"/>
			</g>
			<g>
				<line fill="none" stroke="#474747" stroke-width="3" stroke-miterlimit="10" x1="73.713" y1="79.396" x2="82.172" y2="70.937"/>
				<line fill="none" stroke="#474747" stroke-width="3" stroke-miterlimit="10" x1="82.172" y1="79.396" x2="73.713" y2="70.937"/>
			</g>
		</g>
		<line fill="none" stroke="#FFFFFF" stroke-width="3" stroke-miterlimit="10" x1="48.391" y1="41" x2="48.391" y2="109.5"/>
		<line fill="none" stroke="#FFFFFF" stroke-width="3" stroke-miterlimit="10" x1="48.391" y1="111.5" x2="48.391" y2="118.5"/>
	</g>
	<path fill="#E0E0E0" stroke="#474747" stroke-width="5" stroke-miterlimit="10" d="M80.412,157.475
		c0,0.775-0.836,1.404-1.867,1.404H62.516c-1.031,0-1.867-0.629-1.867-1.404v-22.589c0-0.775,0.836-1.404,1.867-1.404h16.029
		c1.031,0,1.867,0.629,1.867,1.404V157.475z"/>
</g>
<g>
	<path fill="#B7B7B7" stroke="#B7B7B7" stroke-miterlimit="10" d="M65.551,208.623v9.5H16.643c0,0-5.136-0.67-5.136-4.709
		c0-4.037,3.739-4.583,5-4.583S65.551,208.623,65.551,208.623z"/>
	<path fill="#FFFFFF" stroke="#FFFFFF" stroke-miterlimit="10" d="M65.551,218.123v-9.5h56.107c0,0,5.893,0.67,5.893,4.707
		c0,4.039-4.289,4.584-5.736,4.584S65.551,218.123,65.551,218.123z"/>
	<path fill="none" stroke="#474747" stroke-width="5" stroke-miterlimit="10" d="M130.066,213.445c0,4.021-3.507,7.279-7.833,7.279
		H17.048c-4.326,0-7.833-3.258-7.833-7.279l0,0c0-4.02,3.507-7.278,7.833-7.278h105.186
		C126.56,206.167,130.066,209.426,130.066,213.445L130.066,213.445z"/>
</g>
</svg>
