<?xml version="1.0" encoding="utf-8"?>
<!-- Generator: Adobe Illustrator 16.0.0, SVG Export Plug-In . SVG Version: 6.00 Build 0)  -->
<!DOCTYPE svg PUBLIC "-//W3C//DTD SVG 1.1//EN" "http://www.w3.org/Graphics/SVG/1.1/DTD/svg11.dtd">
<svg version="1.1" id="Layer_1" xmlns="http://www.w3.org/2000/svg" xmlns:xlink="http://www.w3.org/1999/xlink" x="0px" y="0px"
	 width="115px" height="146px" viewBox="0 0 115 146" enable-background="new 0 0 115 146" xml:space="preserve">
<path fill="#FFFFFF" stroke="#FFFFFF" stroke-miterlimit="10" d="M26.899,7.245L84.986,7.16c0,0,16.66,0.337,21.422,5.137v122.34
	c0,0-2.375,5.135-28.09,5.135c-25.71,0-51.844,0-51.844,0L26.899,7.245z"/>
<g>
	<path fill="#B7B7B7" stroke="#B7B7B7" stroke-miterlimit="10" d="M26.53,139.713l-12.284,0.084c0,0-3.524-0.336-4.531-5.107V13.034
		c0,0,0.503-5.107,5.941-5.107c5.438,0,10.964,0,10.964,0L26.53,139.713z"/>
	<path fill="none" stroke="#474747" stroke-width="5" stroke-miterlimit="10" d="M108.184,127.024
		c0,7.194-5.834,13.027-13.029,13.027H21.333c-7.194,0-13.027-5.833-13.027-13.027V20.633c0-7.195,5.833-13.028,13.027-13.028
		h73.822c7.195,0,13.029,5.833,13.029,13.028V127.024z"/>
	<rect x="25.036" y="100.528" fill="#474747" stroke="#474747" stroke-miterlimit="10" width="3" height="29"/>
	<g>
		<rect x="31.286" y="100.528" fill="#474747" stroke="#474747" stroke-miterlimit="10" width="1.667" height="23.413"/>
		<rect x="31.286" y="127.107" fill="#474747" stroke="#474747" stroke-miterlimit="10" width="1.667" height="2.421"/>
	</g>
	<g>
		<rect x="36.702" y="100.861" fill="#474747" stroke="#474747" stroke-miterlimit="10" width="1.667" height="23.413"/>
		<rect x="36.702" y="127.441" fill="#474747" stroke="#474747" stroke-miterlimit="10" width="1.667" height="2.42"/>
	</g>
	<g>
		<rect x="41.953" y="100.528" fill="#474747" stroke="#474747" stroke-miterlimit="10" width="1.667" height="23.413"/>
		<rect x="41.953" y="127.107" fill="#474747" stroke="#474747" stroke-miterlimit="10" width="1.667" height="2.421"/>
	</g>
	<g>
		<rect x="47.036" y="100.528" fill="#474747" stroke="#474747" stroke-miterlimit="10" width="1.667" height="23.413"/>
		<rect x="47.036" y="127.107" fill="#474747" stroke="#474747" stroke-miterlimit="10" width="1.667" height="2.421"/>
	</g>
	<g>
		<rect x="51.975" y="100.528" fill="#474747" stroke="#474747" stroke-miterlimit="10" width="4.833" height="23.413"/>
		<rect x="51.975" y="127.107" fill="#474747" stroke="#474747" stroke-miterlimit="10" width="4.833" height="2.421"/>
	</g>
	<rect x="88.451" y="100.528" fill="#474747" stroke="#474747" stroke-miterlimit="10" width="3" height="29"/>
	<g>
		<rect x="79.785" y="100.528" fill="#474747" stroke="#474747" stroke-miterlimit="10" width="4.834" height="23.413"/>
		<rect x="79.785" y="127.107" fill="#474747" stroke="#474747" stroke-miterlimit="10" width="4.834" height="2.421"/>
	</g>
	<g>
		<rect x="59.785" y="100.528" fill="#474747" stroke="#474747" stroke-miterlimit="10" width="1.666" height="23.413"/>
		<rect x="59.785" y="127.107" fill="#474747" stroke="#474747" stroke-miterlimit="10" width="1.666" height="2.421"/>
	</g>
	<g>
		<rect x="64.701" y="100.528" fill="#474747" stroke="#474747" stroke-miterlimit="10" width="1.668" height="23.413"/>
		<rect x="64.701" y="127.107" fill="#474747" stroke="#474747" stroke-miterlimit="10" width="1.668" height="2.421"/>
	</g>
	<g>
		<rect x="69.701" y="100.528" fill="#474747" stroke="#474747" stroke-miterlimit="10" width="1.668" height="23.413"/>
		<rect x="69.701" y="127.107" fill="#474747" stroke="#474747" stroke-miterlimit="10" width="1.668" height="2.421"/>
	</g>
	<g>
		<rect x="74.535" y="100.528" fill="#474747" stroke="#474747" stroke-miterlimit="10" width="1.666" height="23.413"/>
		<rect x="74.535" y="127.107" fill="#474747" stroke="#474747" stroke-miterlimit="10" width="1.666" height="2.421"/>
	</g>
	<rect x="21.805" y="24.195" fill="#474747" stroke="#474747" stroke-miterlimit="10" width="54.396" height="4.497"/>
	<rect x="78.785" y="24.195" fill="#474747" stroke="#474747" stroke-miterlimit="10" width="15.371" height="4.497"/>
	<rect x="21.504" y="33.199" fill="#474747" stroke="#474747" stroke-miterlimit="10" width="20.449" height="4.497"/>
	<rect x="58.13" y="33.618" fill="#474747" stroke="#474747" stroke-miterlimit="10" width="36.729" height="4.497"/>
	<rect x="44.805" y="33.195" fill="#474747" stroke="#474747" stroke-miterlimit="10" width="9.834" height="4.497"/>
	<rect x="21.504" y="65.58" fill="#474747" stroke="#474747" stroke-miterlimit="10" width="54.396" height="4.497"/>
	<rect x="21.805" y="44.198" fill="#474747" stroke="#474747" stroke-miterlimit="10" width="73.054" height="4.497"/>
	<rect x="21.504" y="55.531" fill="#474747" stroke="#474747" stroke-miterlimit="10" width="44.865" height="4.497"/>
	<rect x="69.701" y="55.531" fill="#474747" stroke="#474747" stroke-miterlimit="10" width="25.668" height="4.497"/>
	<g>
		<ellipse fill="none" stroke="#474747" stroke-width="3" stroke-miterlimit="10" cx="38.833" cy="88.052" rx="4" ry="6"/>
		<ellipse fill="none" stroke="#474747" stroke-width="3" stroke-miterlimit="10" cx="51.833" cy="88.052" rx="4" ry="6"/>
		<ellipse fill="none" stroke="#474747" stroke-width="3" stroke-miterlimit="10" cx="64.832" cy="88.052" rx="4" ry="6"/>
		<ellipse fill="none" stroke="#474747" stroke-width="3" stroke-miterlimit="10" cx="77.832" cy="88.052" rx="4" ry="6"/>
	</g>
</g>
<g opacity="0.7">
	
		<rect x="16.217" y="114.041" fill="none" stroke="#C23532" stroke-width="3" stroke-miterlimit="10" width="31.75" height="1.975"/>
	
		<rect x="68.523" y="114.041" fill="none" stroke="#C23532" stroke-width="3" stroke-miterlimit="10" width="31.748" height="1.975"/>
	<g>
		<line fill="none" stroke="#C23532" stroke-width="3" stroke-miterlimit="10" x1="53.914" y1="119.359" x2="62.574" y2="110.697"/>
		<line fill="none" stroke="#C23532" stroke-width="3" stroke-miterlimit="10" x1="62.574" y1="119.359" x2="53.914" y2="110.697"/>
	</g>
</g>
</svg>
